<mxfile host="app.diagrams.net" agent="Mozilla/5.0 (Windows NT 10.0; Win64; x64) AppleWebKit/537.36 (KHTML, like Gecko) Chrome/131.0.0.0 Safari/537.36 Edg/131.0.0.0" version="24.9.3">
  <diagram name="Page-1" id="hLqYhovcv9FF9PHpCR_O">
    <mxGraphModel dx="2066" dy="1149" grid="1" gridSize="10" guides="1" tooltips="1" connect="1" arrows="1" fold="1" page="1" pageScale="1" pageWidth="850" pageHeight="1100" math="0" shadow="0">
      <root>
        <mxCell id="0" />
        <mxCell id="1" parent="0" />
        <mxCell id="YM6vqZbOk4Zb2FIekvFs-8" value="" style="edgeStyle=orthogonalEdgeStyle;rounded=0;orthogonalLoop=1;jettySize=auto;html=1;" edge="1" parent="1" source="YM6vqZbOk4Zb2FIekvFs-1" target="YM6vqZbOk4Zb2FIekvFs-2">
          <mxGeometry relative="1" as="geometry" />
        </mxCell>
        <mxCell id="YM6vqZbOk4Zb2FIekvFs-9" value="" style="edgeStyle=orthogonalEdgeStyle;rounded=0;orthogonalLoop=1;jettySize=auto;html=1;" edge="1" parent="1" source="YM6vqZbOk4Zb2FIekvFs-1" target="YM6vqZbOk4Zb2FIekvFs-3">
          <mxGeometry relative="1" as="geometry" />
        </mxCell>
        <mxCell id="YM6vqZbOk4Zb2FIekvFs-10" value="" style="edgeStyle=orthogonalEdgeStyle;rounded=0;orthogonalLoop=1;jettySize=auto;html=1;" edge="1" parent="1" source="YM6vqZbOk4Zb2FIekvFs-1" target="YM6vqZbOk4Zb2FIekvFs-4">
          <mxGeometry relative="1" as="geometry" />
        </mxCell>
        <mxCell id="YM6vqZbOk4Zb2FIekvFs-28" value="" style="edgeStyle=orthogonalEdgeStyle;rounded=0;orthogonalLoop=1;jettySize=auto;html=1;" edge="1" parent="1" source="YM6vqZbOk4Zb2FIekvFs-1" target="YM6vqZbOk4Zb2FIekvFs-26">
          <mxGeometry relative="1" as="geometry" />
        </mxCell>
        <mxCell id="YM6vqZbOk4Zb2FIekvFs-1" value="&lt;div&gt;Microcontroller&lt;/div&gt;&lt;div&gt;&lt;br&gt;&lt;/div&gt;&lt;b&gt;CPU&lt;/b&gt; (Renesas RA4M1 Cortex-M4)&lt;div&gt;&lt;br&gt;&lt;div&gt;&lt;strong&gt;SRAM:&lt;/strong&gt; 32 kB for high-speed variable storage during runtime.&lt;/div&gt;&lt;/div&gt;" style="whiteSpace=wrap;html=1;aspect=fixed;" vertex="1" parent="1">
          <mxGeometry x="355" y="350" width="140" height="140" as="geometry" />
        </mxCell>
        <mxCell id="YM6vqZbOk4Zb2FIekvFs-2" value="Thermal Sensor" style="shape=cube;whiteSpace=wrap;html=1;boundedLbl=1;backgroundOutline=1;darkOpacity=0.05;darkOpacity2=0.1;" vertex="1" parent="1">
          <mxGeometry x="540" y="380" width="120" height="80" as="geometry" />
        </mxCell>
        <mxCell id="YM6vqZbOk4Zb2FIekvFs-3" value="Lidar Sensor" style="shape=cube;whiteSpace=wrap;html=1;boundedLbl=1;backgroundOutline=1;darkOpacity=0.05;darkOpacity2=0.1;" vertex="1" parent="1">
          <mxGeometry x="180" y="380" width="120" height="80" as="geometry" />
        </mxCell>
        <mxCell id="YM6vqZbOk4Zb2FIekvFs-11" value="" style="edgeStyle=orthogonalEdgeStyle;rounded=0;orthogonalLoop=1;jettySize=auto;html=1;" edge="1" parent="1" source="YM6vqZbOk4Zb2FIekvFs-4" target="YM6vqZbOk4Zb2FIekvFs-5">
          <mxGeometry relative="1" as="geometry" />
        </mxCell>
        <mxCell id="YM6vqZbOk4Zb2FIekvFs-12" value="" style="edgeStyle=orthogonalEdgeStyle;rounded=0;orthogonalLoop=1;jettySize=auto;html=1;" edge="1" parent="1" source="YM6vqZbOk4Zb2FIekvFs-4" target="YM6vqZbOk4Zb2FIekvFs-6">
          <mxGeometry relative="1" as="geometry" />
        </mxCell>
        <mxCell id="YM6vqZbOk4Zb2FIekvFs-4" value="Motor Driver" style="shape=cube;whiteSpace=wrap;html=1;boundedLbl=1;backgroundOutline=1;darkOpacity=0.05;darkOpacity2=0.1;" vertex="1" parent="1">
          <mxGeometry x="365" y="560" width="120" height="80" as="geometry" />
        </mxCell>
        <mxCell id="YM6vqZbOk4Zb2FIekvFs-5" value="6v DC Motor" style="shape=cube;whiteSpace=wrap;html=1;boundedLbl=1;backgroundOutline=1;darkOpacity=0.05;darkOpacity2=0.1;" vertex="1" parent="1">
          <mxGeometry x="180" y="560" width="120" height="80" as="geometry" />
        </mxCell>
        <mxCell id="YM6vqZbOk4Zb2FIekvFs-6" value="6v DC Motor" style="shape=cube;whiteSpace=wrap;html=1;boundedLbl=1;backgroundOutline=1;darkOpacity=0.05;darkOpacity2=0.1;" vertex="1" parent="1">
          <mxGeometry x="550" y="560" width="120" height="80" as="geometry" />
        </mxCell>
        <mxCell id="YM6vqZbOk4Zb2FIekvFs-18" value="" style="edgeStyle=orthogonalEdgeStyle;rounded=0;orthogonalLoop=1;jettySize=auto;html=1;" edge="1" parent="1" source="YM6vqZbOk4Zb2FIekvFs-17" target="YM6vqZbOk4Zb2FIekvFs-4">
          <mxGeometry relative="1" as="geometry" />
        </mxCell>
        <mxCell id="YM6vqZbOk4Zb2FIekvFs-17" value="(2) 4.1V 18650 Batteries" style="shape=parallelogram;perimeter=parallelogramPerimeter;whiteSpace=wrap;html=1;fixedSize=1;" vertex="1" parent="1">
          <mxGeometry x="345" y="670" width="160" height="80" as="geometry" />
        </mxCell>
        <mxCell id="YM6vqZbOk4Zb2FIekvFs-19" value="I2C" style="text;html=1;align=center;verticalAlign=middle;whiteSpace=wrap;rounded=0;" vertex="1" parent="1">
          <mxGeometry x="300" y="390" width="60" height="30" as="geometry" />
        </mxCell>
        <mxCell id="YM6vqZbOk4Zb2FIekvFs-20" value="I2C" style="text;html=1;align=center;verticalAlign=middle;whiteSpace=wrap;rounded=0;" vertex="1" parent="1">
          <mxGeometry x="485" y="390" width="60" height="30" as="geometry" />
        </mxCell>
        <mxCell id="YM6vqZbOk4Zb2FIekvFs-21" value="PWM" style="text;html=1;align=center;verticalAlign=middle;whiteSpace=wrap;rounded=0;" vertex="1" parent="1">
          <mxGeometry x="300" y="570" width="60" height="30" as="geometry" />
        </mxCell>
        <mxCell id="YM6vqZbOk4Zb2FIekvFs-23" value="PWM" style="text;html=1;align=center;verticalAlign=middle;whiteSpace=wrap;rounded=0;" vertex="1" parent="1">
          <mxGeometry x="485" y="570" width="60" height="30" as="geometry" />
        </mxCell>
        <mxCell id="YM6vqZbOk4Zb2FIekvFs-25" value="Serial Monitor" style="swimlane;whiteSpace=wrap;html=1;" vertex="1" parent="1">
          <mxGeometry x="325" y="260" width="200" height="60" as="geometry" />
        </mxCell>
        <mxCell id="YM6vqZbOk4Zb2FIekvFs-26" value="Debugging Interface" style="text;html=1;align=center;verticalAlign=middle;resizable=0;points=[];autosize=1;strokeColor=none;fillColor=none;" vertex="1" parent="YM6vqZbOk4Zb2FIekvFs-25">
          <mxGeometry x="35" y="28" width="130" height="30" as="geometry" />
        </mxCell>
      </root>
    </mxGraphModel>
  </diagram>
</mxfile>
